<svg width="24" height="24" viewBox="0 0 24 24" fill="none" xmlns="http://www.w3.org/2000/svg">
<path d="M7.99995 14.571L6.17695 12.835C6.02474 12.6901 5.8448 12.5775 5.64794 12.504C5.45109 12.4305 5.2414 12.3975 5.03148 12.4072C4.82157 12.4168 4.61577 12.4688 4.42647 12.56C4.23717 12.6512 4.06827 12.7798 3.92995 12.938V12.938C3.67513 13.2288 3.53757 13.6041 3.54404 13.9907C3.55051 14.3774 3.70054 14.7478 3.96495 15.03L9.90695 21.368C10.286 21.771 10.813 22 11.366 22H16C18.4 22 20 20 20 18V9.42899" stroke="#BF70AC" stroke-width="1.5" stroke-linecap="round" stroke-linejoin="round"/>
<path d="M8 14.571V3.5C8 3.10218 8.15804 2.72064 8.43934 2.43934C8.72064 2.15804 9.10218 2 9.5 2V2C10.328 2 11 2.67 11 3.499V10M17 10V9.429C17 7.143 20 7.143 20 9.429L17 10ZM14 10V8.286C14 6 17 6 17 8.286V10H14ZM11 10V7.5C11 5.214 14 5.214 14 7.5V10H11Z" stroke="#BF70AC" stroke-width="1.5" stroke-linecap="round" stroke-linejoin="round"/>
</svg>
