<svg width="24" height="24" viewBox="0 0 24 24" fill="none" xmlns="http://www.w3.org/2000/svg">
<path d="M12 4C7.121 4 3 8.121 3 13C3 17.879 7.121 22 12 22C16.879 22 21 17.879 21 13C21 8.121 16.879 4 12 4ZM12 20C8.206 20 5 16.794 5 13C5 9.206 8.206 6 12 6C15.794 6 19 9.206 19 13C19 16.794 15.794 20 12 20Z" fill="#BF70AC"/>
<path d="M13 12V7.99999H11V14H17V12H13ZM17.284 3.70699L18.696 2.29099L21.706 5.29099L20.293 6.70799L17.284 3.70699ZM6.69804 3.70699L3.70804 6.70599L2.29004 5.29399L5.28004 2.29399L6.69804 3.70699Z" fill="#BF70AC"/>
</svg>
